<svg width="28" height="28" viewBox="0 0 28 28" fill="none" xmlns="http://www.w3.org/2000/svg">
<path d="M3.62794 24.3721C4.14911 23.8509 4.14263 23.0096 3.6756 22.4394C2.85153 21.4332 2.17802 20.3097 1.67848 19.1037C1.00827 17.4858 0.664404 15.7513 0.666637 14C0.666637 6.63602 6.63597 0.666687 14 0.666687C21.364 0.666687 27.3333 6.63602 27.3333 14C27.3333 21.364 21.364 27.3334 14 27.3334H3.88558C2.69771 27.3334 2.10282 25.8972 2.94278 25.0572L3.62794 24.3721ZM14 6.00002C13.2636 6.00002 12.6666 6.59697 12.6666 7.33335V20.6667C12.6666 21.4031 13.2636 22 14 22C14.7363 22 15.3333 21.4031 15.3333 20.6667V7.33335C15.3333 6.59697 14.7363 6.00002 14 6.00002ZM8.66664 10C7.93026 10 7.3333 10.597 7.3333 11.3334V16.6667C7.3333 17.4031 7.93026 18 8.66664 18C9.40302 18 9.99997 17.4031 9.99997 16.6667V11.3334C9.99997 10.597 9.40302 10 8.66664 10ZM19.3333 10C18.5969 10 18 10.597 18 11.3334V16.6667C18 17.4031 18.5969 18 19.3333 18C20.0697 18 20.6666 17.4031 20.6666 16.6667V11.3334C20.6666 10.597 20.0697 10 19.3333 10Z" fill="#2E90FA"/>
</svg>
