<svg width="25" height="24" viewBox="0 0 25 24" fill="none" xmlns="http://www.w3.org/2000/svg">
<path d="M18.9206 16.617L23.2036 20.899L21.7886 22.314L17.5066 18.031C15.9134 19.3082 13.9316 20.0029 11.8896 20C6.92165 20 2.88965 15.968 2.88965 11C2.88965 6.032 6.92165 2 11.8896 2C16.8576 2 20.8896 6.032 20.8896 11C20.8926 13.042 20.1979 15.0237 18.9206 16.617ZM16.9146 15.875C18.1838 14.5699 18.8925 12.8204 18.8896 11C18.8896 7.132 15.7566 4 11.8896 4C8.02165 4 4.88965 7.132 4.88965 11C4.88965 14.867 8.02165 18 11.8896 18C13.7101 18.0029 15.4595 17.2941 16.7646 16.025L16.9146 15.875Z" fill="#6C737F"/>
</svg>
